<?xml version="1.0" encoding="UTF-8" standalone="no"?>
<svg
   xmlns:dc="http://purl.org/dc/elements/1.1/"
   xmlns:cc="http://creativecommons.org/ns#"
   xmlns:rdf="http://www.w3.org/1999/02/22-rdf-syntax-ns#"
   xmlns:svg="http://www.w3.org/2000/svg"
   xmlns="http://www.w3.org/2000/svg"
   xmlns:sodipodi="http://sodipodi.sourceforge.net/DTD/sodipodi-0.dtd"
   xmlns:inkscape="http://www.inkscape.org/namespaces/inkscape"
   viewBox="-0.2 -1 379.27145 353.02866"
   id="svg2"
   version="1.1"
   inkscape:version="0.48.1 "
   width="100%"
   height="100%"
   sodipodi:docname="octocat_cheshire_3.svg">
  <metadata
     id="metadata24">
    <rdf:RDF>
      <cc:Work
         rdf:about="">
        <dc:format>image/svg+xml</dc:format>
        <dc:type
           rdf:resource="http://purl.org/dc/dcmitype/StillImage" />
        <dc:title></dc:title>
      </cc:Work>
    </rdf:RDF>
  </metadata>
  <defs
     id="defs22" />
  <sodipodi:namedview
     pagecolor="#ffffff"
     bordercolor="#666666"
     borderopacity="1"
     objecttolerance="10"
     gridtolerance="10"
     guidetolerance="10"
     inkscape:pageopacity="0"
     inkscape:pageshadow="2"
     inkscape:window-width="1680"
     inkscape:window-height="1003"
     id="namedview20"
     showgrid="false"
     inkscape:zoom="2.212285"
     inkscape:cx="189.63573"
     inkscape:cy="176.51433"
     inkscape:window-x="-4"
     inkscape:window-y="-4"
     inkscape:window-maximized="1"
     inkscape:current-layer="svg2"
     fit-margin-top="1.3877788e-016"
     fit-margin-left="0"
     fit-margin-right="0"
     fit-margin-bottom="0" />
  <path
     style="fill:#b7bec8"
     d="m 369.11242,162.26725 c 0,-87.353519 -78.91366,-158.1578012 -176.24493,-158.1578012 -97.347879,0 -176.261544,70.8042822 -176.261544,158.1578012 0,87.35349 78.910347,158.17479 176.261544,158.17479 97.33127,0 176.24493,-70.83406 176.24493,-158.17479 z"
     id="path3024"
     inkscape:connector-curvature="0" />
  <path
     d="m 372.88789,118.44746 -0.0282,-1.41666 c -31.77153,0.68201 -63.00168,7.5623 -81.71185,12.54663 0.61651,-11.86781 -1.31044,-24.93716 -4.4999,-39.27981 -4.57438,-20.570521 -15.96203,-35.307977 -31.29317,-45.040054 0.61866,-7.564672 0.052,-23.932969 -12.46776,-42.2643629 0,0 -15.1965,-1.350446 -42.52381,27.2772029 -13.27576,-0.346448 -27.00595,1.077975 -40.41051,4.058826 -14.74873,3.279761 -29.23405,8.471943 -42.28563,15.375713 -38.156831,-15.234431 -51.752987,-7.352117 -51.752987,-7.352117 -4.237836,25.996808 5.595956,42.361361 8.365332,46.352368 -8.527893,14.605444 -11.940761,31.588234 -7.726065,50.541274 3.181861,14.30848 7.665579,26.78263 14.125319,37.05431 -19.199888,3.54225 -49.217924,10.49721 -77.2469971,22.88598 l 0.570933,1.29596 C 32.200321,188.01855 62.421407,181.08298 81.510342,177.58999 c 1.390183,2.11465 2.865498,4.13764 4.442213,6.05919 -18.585579,4.76608 -50.019257,14.25987 -78.7302361,29.71375 l 0.672991,1.24357 C 36.834266,199.03533 68.558414,189.53944 86.97046,184.84985 c 15.82104,18.3615 40.8667,26.9229 81.03679,22.42786 l 59.34591,-13.12539 c 40.91448,-13.4522 57.98699,-31.42576 62.5705,-54.47226 18.43737,-3.57142 51.91225,-8.67256 85.43653,-6.78887 l 0.0796,-1.41092 c -33.33218,-1.87212 -66.60197,3.124 -85.23262,6.70152 0.4051,-2.31514 0.68004,-4.69046 0.85496,-7.11013 18.61733,-4.95958 49.98338,-11.92439 81.87422,-12.61347 z"
     id="path3001"
     inkscape:connector-curvature="0"
     sodipodi:nodetypes="cccscccscccsccccccccccccccccc"
     style="fill:#c837ab" />
  <path
     id="puddle"
     d="m 295.76296,310.86949 c 0,20.533 -47.56,37.176 -106.22,37.176 -58.67,0 -106.230001,-16.643 -106.230001,-37.176 0,-20.533 47.558001,-37.18 106.230001,-37.18 58.66,0 106.22,16.65 106.22,37.18 z"
     style="fill:#6f7c91"
     inkscape:connector-curvature="0" />
  <g
     id="shadow-legs"
     style="fill:#535d6c"
     transform="translate(-1.1770409,15.439484)">
    <path
       d="m 161.85,331.22 v -26.5 c 0,-3.422 -0.619,-6.284 -1.653,-8.701 6.853,5.322 7.316,18.695 7.316,18.695 v 17.004 c 6.166,0.481 12.534,0.773 19.053,0.861 l -0.172,-16.92 c -0.944,-23.13 -20.769,-25.961 -20.769,-25.961 -7.245,-1.645 -7.137,1.991 -6.409,4.34 -7.108,-12.122 -26.158,-10.556 -26.158,-10.556 -6.611,2.357 -0.475,6.607 -0.475,6.607 10.387,3.775 11.33,15.105 11.33,15.105 v 23.622 c 5.72,0.98 11.71,1.79 17.94,2.4 z"
       id="path6"
       style="fill:#535d6c"
       inkscape:connector-curvature="0" />
    <path
       d="m 245.4,283.48 c 0,0 -19.053,-1.566 -26.16,10.559 0.728,-2.35 0.839,-5.989 -6.408,-4.343 0,0 -19.824,2.832 -20.768,25.961 l -0.174,16.946 c 6.509,-0.025 12.876,-0.254 19.054,-0.671 v -17.219 c 0,0 0.465,-13.373 7.316,-18.695 -1.034,2.417 -1.653,5.278 -1.653,8.701 v 26.775 c 6.214,-0.544 12.211,-1.279 17.937,-2.188 v -24.113 c 0,0 0.944,-11.33 11.33,-15.105 0,-0.01 6.13,-4.26 -0.48,-6.62 z"
       id="path8"
       style="fill:#535d6c"
       inkscape:connector-curvature="0" />
  </g>
  <path
     id="cat"
     d="m 157.72496,198.99749 c -5.704,3.833 -11.523,10.349 -13.881,21.374 -7.773,3.718 -32.379,12.793 -47.142001,-12.599 0,0 -8.264,-15.109 -24.082,-16.292 0,0 -15.344,-0.235 -1.059,9.562 0,0 10.267,4.838 17.351,23.019 0,0 9.241,31.01 53.835001,21.061 l 0,32.032 c 0,0 -0.943,11.33 -11.33,15.105 0,0 -6.137,4.249 0.475,6.606 0,0 28.792,2.361 28.792,-21.238 l 0,-34.929 c 0,0 -1.142,-13.852 5.663,-18.667 l 0,57.371 c 0,0 -0.47,13.688 -7.551,18.881 0,0 -4.723,8.494 5.663,6.137 0,0 19.824,-2.832 20.769,-25.961 l 0.449,-58.06 4.765,0 0.453,58.06 c 0.943,23.129 20.768,25.961 20.768,25.961 10.383,2.357 5.663,-6.137 5.663,-6.137 -7.08,-5.193 -7.551,-18.881 -7.551,-18.881 l 0,-56.876 c 6.801,5.296 5.663,18.171 5.663,18.171 l 0,34.929 c 0,23.6 28.793,21.238 28.793,21.238 6.606,-2.357 0.474,-6.606 0.474,-6.606 -10.386,-3.775 -11.33,-15.105 -11.33,-15.105 l 0,-45.786 c 0,-17.854 -11.40172,-31.84001 -18.75372,-36.83101 z"
     inkscape:connector-curvature="0"
     sodipodi:nodetypes="ccccccccccsccccccccccccccscccscc"
     style="fill:#c837ab" />
  <g
     id="g3931"
     style="fill:#a02c89"
     transform="translate(-1.1770409,15.439484)">
    <path
       d="m 88.147501,169.41036 c 15.821039,18.3615 64.366699,-23.5771 104.536789,-28.07214 l 35.84591,37.37461 c 40.91448,-13.4522 57.98699,-31.42576 62.5705,-54.47226 C 94.52243,47.0575 33.815787,69.95753 88.147501,169.41036 z"
       id="path3927"
       inkscape:connector-curvature="0"
       sodipodi:nodetypes="ccccc"
       style="fill:#a02c89" />
    <path
       sodipodi:nodetypes="ccccccc"
       transform="translate(-0.2,-1)"
       inkscape:connector-curvature="0"
       id="path3806"
       d="m 144.125,262.72266 c 5.82812,1.73828 8.40625,7.10156 17.48437,5.21484 0.14844,-1.64062 0.29688,-3.28125 0.44532,-4.92187 0.002,-6.0223 0.003,-8.91959 0.005,-14.94189 -10.48083,-0.7903 -11.96166,-8.3306 -17.94249,-12.4959 0.003,10.08994 0.005,17.05488 0.008,27.14482 z"
       style="fill:#a02c89;stroke:none" />
    <path
       style="fill:#a02c89;stroke:none"
       d="m 143.925,229.72266 c 6.39414,2.17665 5.29246,-3.60654 17.92969,0.29297 0.002,-6.0223 -0.372,-8.91959 1.6925,-16.19189 -13.13248,-5.82844 -10.96166,-10.2056 -16.87999,-14.4334 -3.872,10.08994 -2.745,20.24238 -2.742,30.33232 z"
       id="path3826"
       inkscape:connector-curvature="0"
       sodipodi:nodetypes="cccccc" />
    <path
       style="fill:#a02c89;stroke:none"
       d="m 167.46163,244.31534 c 6.39414,2.17665 5.88941,9.68927 18.96858,6.87127 l 0.11845,-16.26943 c -4.11687,-12.10401 -13.12234,-8.37576 -19.04067,-12.60356 l -0.0462,22.00172 z"
       id="path3826-5"
       inkscape:connector-curvature="0"
       sodipodi:nodetypes="cccccc" />
    <path
       sodipodi:nodetypes="cccssssssccc"
       inkscape:connector-curvature="0"
       id="path3857"
       d="m 210.94975,230.38213 0.0111,-10.50068 -0.0179,-10.77946 c 1.2775,0.89757 2.82061,2.81075 4.04342,5.62238 0.23372,0.5374 19.3087,5.59175 19.50491,-0.92022 0.13978,-4.63929 -3.41111,-13.64836 -3.5594,-13.70238 -2.83097,-1.03135 -38.88402,-9.20946 -49.84566,-10.0434 -9.76773,-0.74311 -27.60906,-2.25817 -27.24588,0.74926 0.58633,4.85545 29.22121,16.15291 33.00936,16.14906 l 4.76576,-0.005 0.18163,22.68775 c 8.62289,2.24325 12.7306,-0.59248 19.15266,0.74252 z"
       style="fill:#a02c89;stroke:none" />
    <path
       id="path3861"
       d="m 164.94802,277.9644 c 0,0 -1.36327,4.0068 -4.97502,6.8796 0,0 -5.11807,8.22883 5.70988,6.137 0,0 12.44043,-1.94433 18.02896,-14.00648 -12.9228,-2.07215 -13.88436,0.43248 -18.76382,0.98988 z"
       inkscape:connector-curvature="0"
       sodipodi:nodetypes="ccccc"
       style="fill:#a02c89" />
    <path
       style="fill:#a02c89;stroke:none"
       d="m 211.18726,266.9175 c 0.50813,-11.47901 -13.27859,-8.39138 -19.19692,-12.61918 l 0.0788,10.85328 c 5.99226,8.26766 19.23704,9.40429 19.11812,1.7659 z"
       id="path3826-5-7"
       inkscape:connector-curvature="0"
       sodipodi:nodetypes="cccc" />
    <path
       sodipodi:nodetypes="ccccccc"
       inkscape:connector-curvature="0"
       id="path3881"
       d="m 234.59549,253.65005 c -8.26914,6.55165 -11.16247,5.18927 -17.86664,6.87127 -0.0395,-5.42314 -0.079,-13.59629 -0.11845,-19.01943 9.11687,-3.47901 12.0204,-8.37576 17.93873,-12.60356 0.002,7.33781 0.005,17.42563 0.007,24.76344 0.0131,-0.004 0.0262,-0.008 0.0392,-0.0117 z"
       style="fill:#a02c89;stroke:none" />
    <path
       d="M 201.54024,14.830922 C 188.26448,14.484474 174.53429,15.908897 161.12973,18.889748 146.381,22.169509 131.89568,27.361691 118.8441,34.265461 113.71569,85.977625 48.068529,32.714726 75.456446,73.265712 121.77376,72.590043 253.78026,68.007896 201.54024,14.830922 z"
       id="path3929"
       inkscape:connector-curvature="0"
       sodipodi:nodetypes="csccc"
       style="fill:#a02c89" />
  </g>
  <path
     id="face"
     d="m 245.51575,98.431265 c 10.82628,6.159785 23.04614,14.853045 20.65172,25.467335 -9.83146,43.58218 -25.64185,59.15776 -71.241,69.2979 -45.60695,10.14189 -84.09911,11.49477 -93.8991,-32.57474 -2.34635,-10.55126 0.67216,-21.50366 7.76376,-31.61311 11.83218,-16.85126 38.55195,-15.26356 67.05666,-21.60231 28.37597,-6.31424 51.80258,-19.13012 69.662,-8.97887 z"
     inkscape:connector-curvature="0"
     style="fill:#ffaaee"
     sodipodi:nodetypes="cssscccc" />
  <path
     style="fill:#ffd5f6"
     d="m 151.39582,146.89807 c 3.42198,13.56916 -1.44527,26.49374 -10.87018,28.8706 -9.42491,2.37687 -19.83918,-6.69387 -23.26119,-20.26303 -3.42151,-13.56722 1.44675,-26.48792 10.87166,-28.86478 9.42735,-2.36718 19.83868,6.69193 23.25971,20.25721 z"
     id="path3896"
     inkscape:connector-curvature="0" />
  <path
     style="fill:#ffd5f6"
     d="m 242.959,123.80678 c 3.422,13.56915 -1.44526,26.49374 -10.87018,28.87062 -9.42492,2.37685 -19.83917,-6.6939 -23.26118,-20.26304 -3.4215,-13.56722 1.44673,-26.48793 10.87164,-28.8648 9.42736,-2.36716 19.8387,6.69194 23.25972,20.25722 z"
     id="eyes"
     inkscape:connector-curvature="0" />
  <path
     style="fill:#2b0022"
     d="m 146.00529,148.58751 c 2.28101,9.04483 -0.97087,17.66058 -7.24833,19.2437 -6.27746,1.5831 -13.22523,-4.46041 -15.50624,-13.50523 -2.28173,-9.04771 0.96432,-17.66613 7.24567,-19.25021 6.27356,-1.58214 13.22254,4.4621 15.50405,13.50885 z"
     id="path3900"
     inkscape:connector-curvature="0" />
  <path
     style="fill:#2b0022"
     d="m 237.55878,125.49869 c 2.28101,9.04481 -0.97088,17.66056 -7.24833,19.24367 -6.27745,1.58312 -13.22522,-4.46039 -15.50622,-13.50521 -2.28176,-9.04773 0.96431,-17.66614 7.24563,-19.25023 6.27359,-1.58212 13.22256,4.46212 15.50407,13.50885 z"
     id="pupils"
     inkscape:connector-curvature="0" />
  <path
     id="octo"
     d="m 79.463959,195.25949 c 0,1.174 -1.376,2.122 -3.07,2.122 -1.693,0 -3.07,-0.948 -3.07,-2.122 0,-1.175 1.377,-2.127 3.07,-2.127 1.694,0 3.07,0.95 3.07,2.13 z m 8.5,4.72 c 0,1.174 -1.376,2.122 -3.07,2.122 -1.693,0 -3.07,-0.948 -3.07,-2.122 0,-1.175 1.377,-2.127 3.07,-2.127 1.694,0 3.07,0.95 3.07,2.13 z m 5.193,6.14 c 0,1.174 -1.376,2.122 -3.07,2.122 -1.693,0 -3.07,-0.948 -3.07,-2.122 0,-1.175 1.377,-2.127 3.07,-2.127 1.694,0 3.07,0.95 3.07,2.13 z m 4.72,7.08 c 0,1.174 -1.376,2.122 -3.07,2.122 -1.693,0 -3.07,-0.948 -3.07,-2.122 0,-1.175 1.377,-2.127 3.07,-2.127 1.694,0 3.07,0.95 3.07,2.13 z m 5.188001,6.61 c 0,1.174 -1.376,2.122 -3.070001,2.122 -1.693,0 -3.07,-0.948 -3.07,-2.122 0,-1.175 1.377,-2.127 3.07,-2.127 1.694001,0 3.070001,0.95 3.070001,2.13 z m 7.09,5.66 c 0,1.174 -1.376,2.122 -3.07,2.122 -1.693,0 -3.07,-0.948 -3.07,-2.122 0,-1.175 1.377,-2.127 3.07,-2.127 1.694,0 3.07,0.95 3.07,2.13 z m 9.91,3.78 c 0,1.174 -1.376,2.122 -3.07,2.122 -1.693,0 -3.07,-0.948 -3.07,-2.122 0,-1.175 1.377,-2.127 3.07,-2.127 1.694,0 3.07,0.95 3.07,2.13 z m 9.87,0 c 0,1.174 -1.376,2.122 -3.07,2.122 -1.693,0 -3.07,-0.948 -3.07,-2.122 0,-1.175 1.377,-2.127 3.07,-2.127 1.694,0 3.07,0.95 3.07,2.13 z m 10.01,-1.64 c 0,1.174 -1.376,2.122 -3.07,2.122 -1.693,0 -3.07,-0.948 -3.07,-2.122 0,-1.175 1.377,-2.127 3.07,-2.127 1.694,0 3.07,0.95 3.07,2.13 z"
     style="fill:#a02c89"
     inkscape:connector-curvature="0" />
  <path
     style="fill:#ffffff;stroke:#550044;stroke-width:2;stroke-linecap:butt;stroke-linejoin:miter;stroke-miterlimit:4;stroke-opacity:1;stroke-dasharray:none"
     d="m 75.379932,137.82365 c -7.887948,-11.70023 -3.374591,7.64144 11.803254,30.01417 10.661973,16.40479 22.787024,22.86252 36.974874,28.51354 14.41209,6.28438 32.62901,9.84089 46.20562,8.61462 20.96254,-1.9743 48.05229,-8.95098 72.58311,-26.73497 17.17117,-11.40347 24.47295,-22.64551 31.37525,-43.11991 6.40186,-32.52618 2.55812,-59.622634 -0.87455,-51.197642 C 263.64754,209.38067 112.98357,211.47623 75.379932,137.82365 z"
     id="path3026"
     inkscape:connector-curvature="0"
     sodipodi:nodetypes="cccccccc" />
  <circle
     style="fill:#a02c89"
     r="4.401"
     cy="148.56"
     cx="188.5"
     id="nose"
     d="m 192.901,148.56 c 0,2.4306 -1.97039,4.401 -4.401,4.401 -2.43061,0 -4.401,-1.9704 -4.401,-4.401 0,-2.43061 1.97039,-4.401 4.401,-4.401 2.43061,0 4.401,1.97039 4.401,4.401 z"
     sodipodi:cx="188.5"
     sodipodi:cy="148.56"
     sodipodi:rx="4.401"
     sodipodi:ry="4.401"
     transform="translate(-2.8695848,20.378814)" />
  <path
     style="fill:#550044"
     inkscape:connector-curvature="0"
     d="m 80.541197,126.02675 c 0.667736,0.40788 0.876709,1.2786 0.472696,1.94317 -0.407112,0.6671 -1.279364,0.87734 -1.943167,0.47269 -2.899209,-1.76287 -6.60733,-1.51221 -9.230721,0.62538 -2.62339,2.13758 -3.61847,5.71789 -2.476858,8.91419 0.264614,0.73633 -0.119067,1.54302 -0.855425,1.80764 -0.736346,0.26463 -1.543036,-0.11908 -1.808426,-0.8548 -1.546029,-4.31795 -0.194834,-9.16618 3.354964,-12.05861 3.549796,-2.89244 8.554569,-3.24252 12.475825,-0.85222 z"
     id="mouth" />
  <path
     id="path4054"
     d="m 285.1664,81.567328 c 0.18525,0.760218 -0.2812,1.524587 -1.03645,1.710305 -0.75922,0.185331 -1.52557,-0.281289 -1.7103,-1.03643 -0.80995,-3.295021 -3.61402,-5.734324 -6.98121,-6.071259 -3.36719,-0.336924 -6.59887,1.497424 -8.04575,4.567623 -0.33215,0.708451 -1.1733,1.009193 -1.88175,0.677007 -0.70846,-0.332159 -1.00919,-1.173313 -0.67801,-1.881864 1.95193,-4.150279 6.33075,-6.631626 10.88699,-6.175716 4.55625,0.45591 8.34913,3.739865 9.44041,8.200684 z"
     inkscape:connector-curvature="0"
     style="fill:#550044" />
</svg>
